<svg xmlns="http://www.w3.org/2000/svg" viewBox="0 0 720 360" width="720" height="360" role="img" aria-label="Average quality versus spend for each routing objective" font-family="-apple-system, Segoe UI, Helvetica, Arial, sans-serif"><title>Average quality versus spend for each routing objective</title><line x1="64" x2="570" y1="308" y2="308" stroke="#3d444d"/><text x="54" y="312" text-anchor="end" font-size="12" fill="#9198a1">0.4</text><line x1="64" x2="570" y1="252" y2="252" stroke="#3d444d"/><text x="54" y="256" text-anchor="end" font-size="12" fill="#9198a1">0.5</text><line x1="64" x2="570" y1="196.00000000000003" y2="196.00000000000003" stroke="#3d444d"/><text x="54" y="200.00000000000003" text-anchor="end" font-size="12" fill="#9198a1">0.6</text><line x1="64" x2="570" y1="140.00000000000006" y2="140.00000000000006" stroke="#3d444d"/><text x="54" y="144.00000000000006" text-anchor="end" font-size="12" fill="#9198a1">0.7</text><line x1="64" x2="570" y1="83.99999999999999" y2="83.99999999999999" stroke="#3d444d"/><text x="54" y="87.99999999999999" text-anchor="end" font-size="12" fill="#9198a1">0.8</text><line x1="64" x2="570" y1="28" y2="28" stroke="#3d444d"/><text x="54" y="32" text-anchor="end" font-size="12" fill="#9198a1">0.9</text><text x="64" y="328" text-anchor="middle" font-size="12" fill="#9198a1">0%</text><text x="190.5" y="328" text-anchor="middle" font-size="12" fill="#9198a1">25%</text><text x="317" y="328" text-anchor="middle" font-size="12" fill="#9198a1">50%</text><text x="443.5" y="328" text-anchor="middle" font-size="12" fill="#9198a1">75%</text><text x="570" y="328" text-anchor="middle" font-size="12" fill="#9198a1">100%</text><text x="317" y="352" text-anchor="middle" font-size="13" fill="#f0f6fc">Spend, as a share of always using the flagship model</text><text transform="translate(16 168) rotate(-90)" text-anchor="middle" font-size="13" fill="#f0f6fc">Average answer quality (0–1)</text><circle cx="86.88672214252617" cy="153.87434497067133" r="6" fill="#4493f8"/><text x="97.88672214252617" y="157.87434497067133" text-anchor="start" font-size="13" fill="#f0f6fc">Balanced</text><circle cx="542.2019824949662" cy="48.66865630899261" r="6" fill="#4493f8"/><text x="531.2019824949662" y="64.66865630899261" text-anchor="end" font-size="13" fill="#f0f6fc">Best quality</text><circle cx="75.92603977299454" cy="240.480083173773" r="6" fill="#4493f8"/><text x="86.92603977299454" y="244.480083173773" text-anchor="start" font-size="13" fill="#f0f6fc">Cheapest</text><circle cx="72.94146152226698" cy="261.8195371775829" r="6" fill="#4493f8"/><text x="83.94146152226698" y="265.8195371775829" text-anchor="start" font-size="13" fill="#f0f6fc">Fastest</text><circle cx="570" cy="41.09127955419443" r="6" fill="#9198a1"/><text x="581" y="45.09127955419443" text-anchor="start" font-size="13" fill="#f0f6fc">Always flagship</text></svg>
